<svg xmlns="http://www.w3.org/2000/svg" version="1.1" xmlns:xlink="http://www.w3.org/1999/xlink" xmlns:svgjs="http://svgjs.dev/svgjs" width="1000" height="1000" viewBox="0 0 1000 1000"><rect width="1000" height="1000" fill="#ca3433"></rect><g transform="matrix(0.7,0,0,0.7,150.0000000000001,106.25)"><svg viewBox="0 0 320 360" data-background-color="#ca3433" preserveAspectRatio="xMidYMid meet" height="1125" width="1000" xmlns="http://www.w3.org/2000/svg" xmlns:xlink="http://www.w3.org/1999/xlink"><g id="tight-bounds" transform="matrix(1,0,0,1,0,0)"><svg viewBox="0 0 320 360" height="360" width="320"><g><svg></svg></g><g><svg viewBox="0 0 320 360" height="360" width="320"><g><path xmlns="http://www.w3.org/2000/svg" d="M20.961 227.22l3.726 4.658-1.863-6.056c-0.466-2.795-3.726 0.466-1.863 1.398M25.153 224.425c1.397 2.329 2.795 4.658 2.795 6.987 0 3.261 2.795 4.658 5.123 5.589-3.261-3.726-5.124-13.974-7.918-12.576M204.017 26.929c7.918 0 15.371-0.932 23.756 0.931 20.495 5.124 37.729 15.371 49.374 29.811l32.606 52.169c1.397 13.042 4.192 27.482 3.726 43.319 3.261 0 2.795-4.658 6.521-5.59-3.726 9.316-5.59 20.961-6.521 34.469-2.329-7.453 0-18.632 0.466-24.687-3.261 5.124-5.124 1.397-5.124-0.932 0.466-3.726-1.397-3.261-2.795-4.658-5.124-4.658-8.384-9.782-12.11-17.7 2.329-6.055 2.795-14.905-4.658-19.563-2.329-1.397-5.124-3.726-6.521-7.453-1.863-5.124-5.124-11.179-4.193-19.097 0.466-2.329-6.987 5.124-11.179 1.863-18.166-12.576-36.332-27.016-58.224-39.127-11.645 0-20.029-4.192-24.221-9.316-3.726-4.658-0.932-10.713 4.658-11.179 3.261 0 6.987-0.932 9.782 0.932 0.466-1.863 2.329-4.192 4.657-4.192M157.904 16.215l0.932 0.466c4.658 0.932 6.987 7.453 12.11 5.124 0 3.261 0.466 6.521-0.466 8.85-1.397 3.726-5.59 3.726-8.85 3.726-31.208-1.863-49.374 11.179-68.471 22.358-5.124 3.261-10.713 5.59-14.906 9.782-20.029 18.632-41.921 35.866-47.045 70.335l-4.192 38.195c-0.466 4.192-5.124 8.384-4.192 13.508l3.26 22.824c-3.261-3.261-5.124 0.932-4.192 2.795 0.466 1.397 2.329 6.055 5.124 1.863 3.726 6.987 7.453 20.495 12.576 26.55 15.837 18.632 36.332 35.4 53.101 52.169 4.192-0.932 7.453-0.932 8.384-3.727 1.397 2.795-1.397 5.59-3.726 6.056 7.453 4.658 15.837 8.85 27.016 9.781 14.44 0.932 27.948 3.261 40.524 6.522 6.521-1.863 13.042-2.795 20.029-3.261 2.329 0 3.726-3.726 6.521-4.658l0.466-4.658c2.795 4.192 2.329-1.397 0.466-4.192 3.261 2.795 4.192 5.124 5.589 6.987 0-1.397 3.726-6.521 3.727-0.466l0.931-6.055c1.397-0.932 1.863 5.124 3.261 0.931 1.397-4.192 4.192-0.932 6.987-2.329-0.932 1.863-0.466 5.59 2.794 3.261l3.727-3.261c2.329 5.59 6.055 3.261 7.918 2.329 20.495-13.042 40.99-28.413 60.553-43.784l-0.466 6.055 2.329-7.453c2.329 2.329 4.192 0.466 5.124-0.931 2.795-4.658 6.521-9.316 12.577-13.508-7.453 20.029-16.303 35.866-27.482 48.908l-4.658 5.59c0 3.261-0.932 7.453-4.658 7.918-1.863 0.466-5.59-0.932-8.384 1.863-1.397 1.863 3.261 5.59-0.466 2.795-3.261-2.329-6.521 0-10.248 0.932-2.795 0.932 1.863 3.726 2.795 5.589 0.932 1.863 1.863 3.726 1.398 6.056l-5.124-5.59c-6.055 3.261-9.782 9.316-14.906 13.974-2.329 1.863-1.397 5.124-1.397 7.918-3.261 0-6.987-0.932-8.85 0.932-1.397 1.863-0.932 4.658-0.932 7.453-4.658-0.466-5.124-7.453-9.315-6.056-4.192 0.932-8.85 1.397-12.577 3.727 2.795 5.59-4.658 2.329-3.726 3.26-6.987-4.192-13.042-7.453-20.495-4.658-15.837-5.124-35.4-2.795-49.84-0.931 0-2.329 0.466-4.658-0.466-5.124-0.932 2.329-3.726 1.397-3.26 1.397-8.85-6.055-17.7-9.782-27.016-14.905-8.384 0.932-16.303-3.261-18.632-5.59-6.521-6.055-13.974-2.795-20.029-4.192-13.042-3.261-17.7-16.769-19.098-26.084-0.932-4.658-4.658-6.521-6.055-6.056-6.055-19.563-15.371-37.263-22.824-55.429-1.863-4.658-1.397-9.316-1.397-14.44 2.329 0.932 4.658 0.466 4.192-2.794-2.329-15.371-7.918-27.016-13.974-38.195 3.261-15.837 3.726-34.469 11.179-48.443 6.521-12.576 18.632-19.098 27.016-29.811 2.795-3.726 2.795-8.85 5.59-12.11 9.316-9.316 18.632-19.098 28.879-27.482 4.658-3.726 10.247 0 17.234-1.397 2.329-8.384 11.645-15.837 20.495-13.508 3.726 0.932 11.179-8.85 13.508-9.782 3.726-1.397 1.863 3.726 1.863 6.987 8.85-6.987 20.961-10.713 32.14-14.906" fill="#ffffff" fill-rule="nonzero" stroke="none" stroke-width="1" stroke-linecap="butt" stroke-linejoin="miter" stroke-miterlimit="10" stroke-dasharray="" stroke-dashoffset="0" font-family="none" font-weight="none" font-size="none" text-anchor="none" style="mix-blend-mode: normal" data-fill-palette-color="tertiary"></path></g><g transform="matrix(1,0,0,1,64,167.01051701281486)"><svg viewBox="0 0 192 25.978965974370308" height="25.978965974370308" width="192"><g><svg viewBox="0 0 192 25.978965974370308" height="25.978965974370308" width="192"><g><svg viewBox="0 0 192 25.978965974370308" height="25.978965974370308" width="192"><g><svg viewBox="0 0 192 25.978965974370308" height="25.978965974370308" width="192"><g><svg viewBox="0 0 192 25.978965974370308" height="25.978965974370308" width="192"><g><svg viewBox="0 0 192 25.978965974370308" height="25.978965974370308" width="192"><g transform="matrix(1,0,0,1,0,0)"><svg width="192" viewBox="3.4200000762939453 -36.88999938964844 276.2200012207031 37.380001068115234" height="25.978965974370308" data-palette-color="#ffffff"><path d="M15.5 0L3.42-34.69 8.35-34.69 18.26-4.39 28.17-34.69 32.74-34.69 20.65 0 15.5 0ZM38.23-30.08L38.23-34.69 42.97-34.69 42.97-30.08 38.23-30.08ZM38.6 0L38.6-24.12 42.6-24.12 42.6 0 38.6 0ZM65.5-24.12L69.65-24.12 61.18 0 57.03 0 48.58-24.12 52.97-24.12 59.22-3.98 65.5-24.12ZM86-24.58L86-24.58Q87.76-24.58 89.16-24.16 90.57-23.73 91.5-23.07 92.42-22.41 93.1-21.35 93.77-20.29 94.12-19.3 94.47-18.31 94.67-16.92 94.87-15.53 94.91-14.5 94.96-13.48 94.96-12.08L94.96-12.08 94.96-10.18 78.39-10.18Q78.39-8.86 78.98-7.56 79.58-6.25 80.67-5.16 81.76-4.08 83.53-3.39 85.3-2.71 87.44-2.71L87.44-2.71Q89.98-2.71 92.94-3.59L92.94-3.59 93.64-0.85Q89.71 0.49 85.93 0.49L85.93 0.49Q83.27 0.49 81.21-0.22 79.14-0.93 77.89-2.06 76.63-3.2 75.82-4.79 75.02-6.37 74.71-7.95 74.41-9.52 74.41-11.28L74.41-11.28Q74.41-13.99 75.07-16.24 75.72-18.48 76.85-20.01 77.97-21.53 79.47-22.58 80.97-23.63 82.62-24.11 84.27-24.58 86-24.58ZM85.15-21.12L85.15-21.12Q83-21.12 81.45-19.93 79.9-18.75 79.19-16.99 78.48-15.23 78.48-13.21L78.48-13.21 91.08-13.21Q91.08-21.12 85.15-21.12ZM102.53 0L102.53-36.89 106.53-36.89 106.53 0 102.53 0ZM106.92-13.33L117.57-24.61 121.99-24.61 111.49-13.75 122.62 0 117.81 0 106.92-13.33ZM141.17 0L153.5-34.69 158.21-34.69 170.54 0 166.34 0 162.83-10.08 148.52-10.08 145 0 141.17 0ZM161.56-13.72L155.67-30.64 149.77-13.72 161.56-13.72ZM176.15 0L176.15-24.12 178.96-24.12 179.84-22.07Q184.5-24.61 188.34-24.61L188.34-24.61Q190.31-24.61 191.78-23.99 193.24-23.36 194.05-22.42 194.86-21.48 195.33-20.06 195.81-18.63 195.94-17.33 196.08-16.04 196.08-14.38L196.08-14.38 196.08 0 192.07 0 192.07-14.65Q192.07-21 186.6-21L186.6-21Q183.77-21 180.16-19.12L180.16-19.12 180.16 0 176.15 0ZM212.85-24.58L212.85-24.58Q215.53-24.58 217.4-23.96 219.27-23.34 220.28-22.14 221.29-20.95 221.73-19.48 222.17-18.02 222.17-16.11L222.17-16.11 222.17 0 219.34 0 218.41-2.2Q215.46 0.49 211.63 0.49L211.63 0.49Q208.21 0.49 205.84-1.57 203.47-3.64 203.47-6.4L203.47-6.4Q203.47-7.86 204.01-9.03 204.55-10.21 205.56-10.99 206.57-11.77 207.87-12.32 209.16-12.87 210.88-13.16 212.6-13.45 214.34-13.57 216.07-13.7 218.14-13.7L218.14-13.7 218.14-15.6Q218.14-16.43 218.08-17.04 218.02-17.65 217.68-18.51 217.34-19.36 216.75-19.91 216.17-20.46 214.99-20.86 213.82-21.26 212.21-21.26L212.21-21.26Q209.72-21.26 205.77-20.17L205.77-20.17 205.01-23.1Q209.01-24.58 212.85-24.58ZM218.14-5.13L218.14-10.67 216.65-10.67Q215.26-10.67 214.24-10.62 213.21-10.57 211.83-10.34 210.45-10.11 209.57-9.69 208.7-9.28 208.07-8.48 207.45-7.69 207.45-6.59L207.45-6.59Q207.45-5.05 209-3.86 210.55-2.66 212.7-2.66L212.7-2.66Q215.85-2.66 218.14-5.13L218.14-5.13ZM230.96 0L230.96-24.12 233.77-24.12 234.65-22.07Q239.31-24.61 243.14-24.61L243.14-24.61Q245.12-24.61 246.58-23.99 248.05-23.36 248.85-22.42 249.66-21.48 250.14-20.06 250.61-18.63 250.75-17.33 250.88-16.04 250.88-14.38L250.88-14.38 250.88 0 246.88 0 246.88-14.65Q246.88-21 241.41-21L241.41-21Q238.58-21 234.96-19.12L234.96-19.12 234.96 0 230.96 0ZM258.45-11.65L258.45-11.65Q258.45-14.77 259.33-17.26 260.2-19.75 261.74-21.34 263.28-22.92 265.34-23.77 267.41-24.61 269.8-24.61L269.8-24.61Q272.68-24.61 275.63-23.32L275.63-23.32 275.63-36.89 279.64-36.89 279.64 0 276.85 0 276.2-1.51Q272.8 0.49 269.12 0.49L269.12 0.49Q267.6 0.49 266.16 0.12 264.72-0.24 263.31-1.15 261.89-2.05 260.83-3.41 259.77-4.76 259.11-6.88 258.45-9.01 258.45-11.65ZM270.43-2.81L270.43-2.81Q273.1-2.81 275.63-4.17L275.63-4.17 275.63-20.29Q273.02-21.46 270.39-21.46L270.39-21.46Q269.26-21.46 268.21-21.22 267.16-20.97 266.06-20.34 264.97-19.7 264.17-18.7 263.38-17.7 262.87-16.05 262.35-14.4 262.35-12.28L262.35-12.28Q262.35-10.08 262.89-8.36 263.43-6.64 264.26-5.62 265.09-4.59 266.21-3.93 267.33-3.27 268.36-3.04 269.38-2.81 270.43-2.81Z" opacity="1" transform="matrix(1,0,0,1,0,0)" fill="#ffffff" class="undefined-text-0" data-fill-palette-color="primary" id="text-0"></path></svg></g></svg></g></svg></g></svg></g><g></g></svg></g></svg></g></svg></g></svg></g><defs></defs></svg><rect width="320" height="360" fill="none" stroke="none" visibility="hidden"></rect></g></svg></g></svg>